# xmcd CD database file
#
# Track frame offsets:
#	150
#	24762
#	42475
#	58965
#	73375
#	88825
#	103425
#	125407
#
# Disc length: 1935 seconds
#
# Revision: 1
# Processed by: cddbd v1.5.1PL0 Copyright (c) Steve Scherf et al.
# Submitted via: CDex 1.51
#
DISCID=78078d08
DTITLE=Justo Betancourt - Justo Betancourt (Fania 553)
DYEAR=1979
DGENRE=Salsa
TTITLE0=Yo Sin Ti
TTITLE1=Como Selva
TTITLE2=La Realidad
TTITLE3=Asi Lo Entiendo
TTITLE4=Que Mas Quieres De Mi
TTITLE5=Mi Lolelolay
TTITLE6=Vivir
TTITLE7=Saguate Cumbia
EXTD=YEAR: 1979
EXTT0=
EXTT1=
EXTT2=
EXTT3=
EXTT4=
EXTT5=
EXTT6=
EXTT7=
PLAYORDER=
